<mxfile host="app.diagrams.net" agent="Mozilla/5.0 (Windows NT 10.0; Win64; x64) AppleWebKit/537.36 (KHTML, like Gecko) Chrome/131.0.0.0 Safari/537.36" version="24.9.1">
  <diagram name="Page-1" id="6zj4R1OkDG_1Wtw9IMLS">
    <mxGraphModel dx="1185" dy="651" grid="1" gridSize="10" guides="1" tooltips="1" connect="1" arrows="1" fold="1" page="1" pageScale="1" pageWidth="850" pageHeight="1100" math="0" shadow="0">
      <root>
        <mxCell id="0" />
        <mxCell id="1" parent="0" />
        <mxCell id="bFEyqsus9BjQhSnwRUdm-1" value="" style="ellipse;shape=cloud;whiteSpace=wrap;html=1;" vertex="1" parent="1">
          <mxGeometry x="460" y="70" width="350" height="240" as="geometry" />
        </mxCell>
        <mxCell id="bFEyqsus9BjQhSnwRUdm-2" value="" style="whiteSpace=wrap;html=1;aspect=fixed;" vertex="1" parent="1">
          <mxGeometry x="30" y="80" width="190" height="190" as="geometry" />
        </mxCell>
        <mxCell id="bFEyqsus9BjQhSnwRUdm-3" value="Sitecore Portal" style="text;html=1;align=center;verticalAlign=middle;whiteSpace=wrap;rounded=0;" vertex="1" parent="1">
          <mxGeometry x="645" y="50" width="130" height="30" as="geometry" />
        </mxCell>
        <mxCell id="bFEyqsus9BjQhSnwRUdm-4" value="Sitecore CM" style="text;html=1;align=center;verticalAlign=middle;whiteSpace=wrap;rounded=0;" vertex="1" parent="1">
          <mxGeometry x="75" y="50" width="90" height="30" as="geometry" />
        </mxCell>
        <mxCell id="bFEyqsus9BjQhSnwRUdm-5" value="Brand Stream" style="ellipse;whiteSpace=wrap;html=1;" vertex="1" parent="1">
          <mxGeometry x="540" y="130" width="120" height="80" as="geometry" />
        </mxCell>
        <mxCell id="bFEyqsus9BjQhSnwRUdm-6" value="" style="rounded=0;whiteSpace=wrap;html=1;" vertex="1" parent="1">
          <mxGeometry x="30" y="200" width="190" height="70" as="geometry" />
        </mxCell>
        <mxCell id="bFEyqsus9BjQhSnwRUdm-7" value="Backend" style="text;html=1;align=center;verticalAlign=middle;whiteSpace=wrap;rounded=0;" vertex="1" parent="1">
          <mxGeometry x="90" y="200" width="60" height="30" as="geometry" />
        </mxCell>
        <mxCell id="bFEyqsus9BjQhSnwRUdm-8" value="Frontend" style="text;html=1;align=center;verticalAlign=middle;whiteSpace=wrap;rounded=0;" vertex="1" parent="1">
          <mxGeometry x="95" y="80" width="60" height="30" as="geometry" />
        </mxCell>
        <mxCell id="bFEyqsus9BjQhSnwRUdm-9" value="Identity" style="ellipse;whiteSpace=wrap;html=1;" vertex="1" parent="1">
          <mxGeometry x="590" y="220" width="120" height="80" as="geometry" />
        </mxCell>
        <mxCell id="bFEyqsus9BjQhSnwRUdm-10" value="" style="endArrow=classic;html=1;rounded=0;exitX=0.996;exitY=0.895;exitDx=0;exitDy=0;entryX=0.015;entryY=0.622;entryDx=0;entryDy=0;exitPerimeter=0;entryPerimeter=0;" edge="1" parent="1" source="bFEyqsus9BjQhSnwRUdm-6" target="bFEyqsus9BjQhSnwRUdm-9">
          <mxGeometry width="50" height="50" relative="1" as="geometry">
            <mxPoint x="270" y="230" as="sourcePoint" />
            <mxPoint x="320" y="180" as="targetPoint" />
          </mxGeometry>
        </mxCell>
        <mxCell id="bFEyqsus9BjQhSnwRUdm-12" value="1. Auth" style="edgeLabel;html=1;align=center;verticalAlign=middle;resizable=0;points=[];" vertex="1" connectable="0" parent="bFEyqsus9BjQhSnwRUdm-10">
          <mxGeometry x="-0.4884" y="2" relative="1" as="geometry">
            <mxPoint as="offset" />
          </mxGeometry>
        </mxCell>
        <mxCell id="bFEyqsus9BjQhSnwRUdm-11" value="" style="endArrow=classic;html=1;rounded=0;exitX=0.033;exitY=0.392;exitDx=0;exitDy=0;exitPerimeter=0;entryX=1;entryY=0.75;entryDx=0;entryDy=0;" edge="1" parent="1" source="bFEyqsus9BjQhSnwRUdm-9" target="bFEyqsus9BjQhSnwRUdm-6">
          <mxGeometry width="50" height="50" relative="1" as="geometry">
            <mxPoint x="380" y="230" as="sourcePoint" />
            <mxPoint x="430" y="180" as="targetPoint" />
          </mxGeometry>
        </mxCell>
        <mxCell id="bFEyqsus9BjQhSnwRUdm-13" value="2. Retrieve token" style="edgeLabel;html=1;align=center;verticalAlign=middle;resizable=0;points=[];" vertex="1" connectable="0" parent="bFEyqsus9BjQhSnwRUdm-11">
          <mxGeometry x="0.5108" y="-3" relative="1" as="geometry">
            <mxPoint as="offset" />
          </mxGeometry>
        </mxCell>
        <mxCell id="bFEyqsus9BjQhSnwRUdm-14" value="" style="endArrow=classic;html=1;rounded=0;exitX=1;exitY=0.5;exitDx=0;exitDy=0;entryX=0.323;entryY=0.976;entryDx=0;entryDy=0;entryPerimeter=0;" edge="1" parent="1" source="bFEyqsus9BjQhSnwRUdm-6" target="bFEyqsus9BjQhSnwRUdm-5">
          <mxGeometry width="50" height="50" relative="1" as="geometry">
            <mxPoint x="250" y="230" as="sourcePoint" />
            <mxPoint x="300" y="180" as="targetPoint" />
          </mxGeometry>
        </mxCell>
        <mxCell id="bFEyqsus9BjQhSnwRUdm-15" value="3. Request content" style="edgeLabel;html=1;align=center;verticalAlign=middle;resizable=0;points=[];" vertex="1" connectable="0" parent="bFEyqsus9BjQhSnwRUdm-14">
          <mxGeometry x="-0.0209" y="1" relative="1" as="geometry">
            <mxPoint as="offset" />
          </mxGeometry>
        </mxCell>
        <mxCell id="bFEyqsus9BjQhSnwRUdm-16" value="" style="endArrow=classic;html=1;rounded=0;entryX=1;entryY=0.25;entryDx=0;entryDy=0;exitX=0.025;exitY=0.576;exitDx=0;exitDy=0;exitPerimeter=0;" edge="1" parent="1" source="bFEyqsus9BjQhSnwRUdm-5" target="bFEyqsus9BjQhSnwRUdm-6">
          <mxGeometry width="50" height="50" relative="1" as="geometry">
            <mxPoint x="380" y="310" as="sourcePoint" />
            <mxPoint x="430" y="260" as="targetPoint" />
          </mxGeometry>
        </mxCell>
        <mxCell id="bFEyqsus9BjQhSnwRUdm-17" value="4. Retrieve Content" style="edgeLabel;html=1;align=center;verticalAlign=middle;resizable=0;points=[];" vertex="1" connectable="0" parent="bFEyqsus9BjQhSnwRUdm-16">
          <mxGeometry x="0.0541" relative="1" as="geometry">
            <mxPoint as="offset" />
          </mxGeometry>
        </mxCell>
        <mxCell id="bFEyqsus9BjQhSnwRUdm-18" value="" style="endArrow=classic;html=1;rounded=0;exitX=0.993;exitY=0.099;exitDx=0;exitDy=0;entryX=1.008;entryY=0.297;entryDx=0;entryDy=0;exitPerimeter=0;entryPerimeter=0;" edge="1" parent="1" source="bFEyqsus9BjQhSnwRUdm-6" target="bFEyqsus9BjQhSnwRUdm-2">
          <mxGeometry width="50" height="50" relative="1" as="geometry">
            <mxPoint x="380" y="310" as="sourcePoint" />
            <mxPoint x="10" y="190" as="targetPoint" />
            <Array as="points">
              <mxPoint x="250" y="170" />
            </Array>
          </mxGeometry>
        </mxCell>
        <mxCell id="bFEyqsus9BjQhSnwRUdm-19" value="5. Render content" style="edgeLabel;html=1;align=center;verticalAlign=middle;resizable=0;points=[];" vertex="1" connectable="0" parent="bFEyqsus9BjQhSnwRUdm-18">
          <mxGeometry x="0.4214" relative="1" as="geometry">
            <mxPoint x="41" as="offset" />
          </mxGeometry>
        </mxCell>
      </root>
    </mxGraphModel>
  </diagram>
</mxfile>
